<?xml version="1.0" encoding="utf-8"?>
<!-- Generator: Adobe Illustrator 21.1.0, SVG Export Plug-In . SVG Version: 6.00 Build 0)  -->
<svg version="1.1" id="Capa_1" xmlns="http://www.w3.org/2000/svg" xmlns:xlink="http://www.w3.org/1999/xlink" x="0px" y="0px"
	 viewBox="0 0 33.5 30.7" style="enable-background:new 0 0 33.5 30.7;" xml:space="preserve">
<style type="text/css">
	.st0{fill:#0400E7;stroke:#0400E7;stroke-miterlimit:10;}
</style>
<g>
	<path class="st0" d="M29.8,23.1h-26c-1.4,0-2.5-1.1-2.5-2.5v-17C1.2,2.2,2.4,1,3.7,1h26c1.4,0,2.5,1.1,2.5,2.5v17
		C32.2,22,31.1,23.1,29.8,23.1z M3.7,2C2.9,2,2.2,2.7,2.2,3.5v17c0,0.8,0.7,1.5,1.5,1.5h26c0.8,0,1.5-0.7,1.5-1.5v-17
		c0-0.8-0.7-1.5-1.5-1.5H3.7z"/>
	<path class="st0" d="M16.7,14.6c-0.7,0-1.3-0.2-1.8-0.7L2.1,2.8c-0.2-0.2-0.2-0.5,0-0.7c0.2-0.2,0.5-0.2,0.7,0l12.8,11.1
		c0.6,0.6,1.7,0.6,2.4,0L30.7,2c0.2-0.2,0.5-0.2,0.7,0c0.2,0.2,0.2,0.5,0,0.7L18.6,13.9C18.1,14.3,17.4,14.6,16.7,14.6z"/>
</g>
</svg>
